<?xml version="1.0" standalone="no"?><!DOCTYPE svg PUBLIC "-//W3C//DTD SVG 1.1//EN" "http://www.w3.org/Graphics/SVG/1.1/DTD/svg11.dtd"><svg t="1595349023503" class="icon" viewBox="0 0 1024 1024" version="1.1" xmlns="http://www.w3.org/2000/svg" p-id="1430" xmlns:xlink="http://www.w3.org/1999/xlink" width="200" height="200"><defs><style type="text/css"></style></defs><path d="M959.3 444.9L946.8 163c-0.4-23.5-9.8-45.5-26.5-62.1s-38.8-25.8-62.3-26L579.2 64.6h-1.5c-37.2 0-72.2 14.5-98.5 40.8L105.5 479.1c-26.3 26.3-40.8 61.3-40.8 98.5s14.5 72.2 40.8 98.5l242.7 242.7c27.1 27.1 62.8 40.7 98.5 40.7s71.3-13.6 98.5-40.7l373.5-373.5c26.2-26.2 41.1-62.5 40.8-99.6l-0.2-0.8zM862 488.7L488.5 862.2c-11.6 11.6-26.7 17.3-41.9 17.3s-30.3-5.8-41.9-17.3L162 619.5c-11.2-11.2-17.4-26.1-17.4-41.9 0-15.8 6.2-30.7 17.4-41.9l373.8-373.8c11-11 25.7-17.2 41.3-17.4l278.6 10.4h1.5c5.3 0 9.6 4.3 9.6 9.5v0.7l12.5 281.7c0 15.7-6.3 30.9-17.3 41.9z" p-id="1431"></path><path d="M567.5 263.2c-24.2 24.2-37.6 56.4-37.6 90.7s13.3 66.5 37.6 90.7c25 25 57.8 37.5 90.7 37.5 32.8 0 65.7-12.5 90.7-37.5 50-50 50-131.4 0-181.4s-131.4-50-181.4 0zM692.3 388c-18.8 18.8-49.4 18.8-68.2 0-9.1-9.1-14.1-21.2-14.1-34.1s5-25 14.1-34.1c9.4-9.4 21.8-14.1 34.1-14.1 12.4 0 24.7 4.7 34.1 14.1 18.8 18.7 18.8 49.4 0 68.2z" p-id="1432"></path></svg>